name D:\school\WTK\thesis\model\3dpredictsim\Results\batch_windlass\Pog_s1_tmt_bCst_d05_k800_WL30_ig24.mot
datacolumns 128
datarows 4
range 1.04894093 1.08040915
endheader
time	pelvis_tilt	pelvis_list	pelvis_rotation	pelvis_tx	pelvis_ty	pelvis_tz	hip_flexion_l	hip_adduction_l	hip_rotation_l	hip_flexion_r	hip_adduction_r	hip_rotation_r	knee_angle_l	knee_angle_r	ankle_angle_l	ankle_angle_r	subtalar_angle_l	subtalar_angle_r	tmt_angle_l	tmt_angle_r	mtp_angle_l	mtp_angle_r	lumbar_extension	lumbar_bending	lumbar_rotation	arm_flex_l	arm_add_l	arm_rot_l	arm_flex_r	arm_add_r	arm_rot_r	elbow_flex_l	elbow_flex_r	pro_sup_l	pro_sup_r	glut_med1_l/activation	glut_med2_l/activation	glut_med3_l/activation	glut_min1_l/activation	glut_min2_l/activation	glut_min3_l/activation	semimem_l/activation	semiten_l/activation	bifemlh_l/activation	bifemsh_l/activation	sar_l/activation	add_long_l/activation	add_brev_l/activation	add_mag1_l/activation	add_mag2_l/activation	add_mag3_l/activation	tfl_l/activation	pect_l/activation	grac_l/activation	glut_max1_l/activation	glut_max2_l/activation	glut_max3_l/activation	iliacus_l/activation	psoas_l/activation	quad_fem_l/activation	gem_l/activation	peri_l/activation	rect_fem_l/activation	vas_med_l/activation	vas_int_l/activation	vas_lat_l/activation	med_gas_l/activation	lat_gas_l/activation	soleus_l/activation	tib_post_l/activation	flex_dig_l/activation	flex_hal_l/activation	tib_ant_l/activation	per_brev_l/activation	per_long_l/activation	per_tert_l/activation	ext_dig_l/activation	ext_hal_l/activation	ercspn_l/activation	intobl_l/activation	extobl_l/activation	glut_med1_r/activation	glut_med2_r/activation	glut_med3_r/activation	glut_min1_r/activation	glut_min2_r/activation	glut_min3_r/activation	semimem_r/activation	semiten_r/activation	bifemlh_r/activation	bifemsh_r/activation	sar_r/activation	add_long_r/activation	add_brev_r/activation	add_mag1_r/activation	add_mag2_r/activation	add_mag3_r/activation	tfl_r/activation	pect_r/activation	grac_r/activation	glut_max1_r/activation	glut_max2_r/activation	glut_max3_r/activation	iliacus_r/activation	psoas_r/activation	quad_fem_r/activation	gem_r/activation	peri_r/activation	rect_fem_r/activation	vas_med_r/activation	vas_int_r/activation	vas_lat_r/activation	med_gas_r/activation	lat_gas_r/activation	soleus_r/activation	tib_post_r/activation	flex_dig_r/activation	flex_hal_r/activation	tib_ant_r/activation	per_brev_r/activation	per_long_r/activation	per_tert_r/activation	ext_dig_r/activation	ext_hal_r/activation	ercspn_r/activation	intobl_r/activation	extobl_r/activation	
          1.04894093	         -2.92404722	         -1.30409141	          5.17083838	          1.31117616	          0.86106115	         -0.00101586	        -17.44297586	         -1.09332822	          6.81182522	         30.90397688	          1.79685586	         -3.44704456	         -9.19274133	        -17.85828373	          0.49357740	          2.00470904	         12.56111095	          3.68572578	         -8.15759400	         -0.15271498	         27.84053144	          0.55340321	         -1.04094705	         -0.36290486	         -1.72154084	          4.51581015	        -13.46431960	         15.11128727	         -8.16235200	        -13.51117138	          7.49098062	         32.14311079	         17.62911199	         86.51662706	         86.51662706	          0.27237809	          0.08798629	          0.05363537	          0.28491957	          0.18502762	          0.08991360	          0.05000990	          0.05000173	          0.05000111	          0.06611632	          0.07851284	          0.12040973	          0.05007136	          0.05000821	          0.05002035	          0.05000603	          0.25578893	          0.06056304	          0.05000383	          0.05001410	          0.05000993	          0.05000868	          0.27035836	          0.51525282	          0.05000092	          0.05000164	          0.05000048	          0.17901914	          0.13582176	          0.06149726	          0.07707612	          0.26871457	          0.34578908	          0.22120612	          0.20482485	          0.18291948	          0.24797737	          0.05000009	          0.11158546	          0.17175462	          0.05000087	          0.05000019	          0.05000065	          0.05000012	          0.05000074	          0.05000058	          0.05000905	          0.05000252	          0.05012647	          0.05000288	          0.05000297	          0.05000789	          0.05874117	          0.05873974	          0.07256386	          0.05000210	          0.05000458	          0.10074231	          0.15040741	          0.16951284	          0.16179254	          0.11181709	          0.05000648	          0.05872683	          0.05874192	          0.05001144	          0.06901023	          0.12456642	          0.05306613	          0.05307669	          0.24901853	          0.06905550	          0.06398598	          0.05000123	          0.13259112	          0.13448735	          0.11287605	          0.05874125	          0.05874127	          0.05874118	          0.05000061	          0.05000233	          0.05000744	          0.50193715	          0.26200223	          0.15181280	          0.26322936	          0.54353752	          0.05000046	          0.05001218	          0.10974098	          0.11257547	
          1.05943033	         -2.91360980	         -1.38106867	          5.39957426	          1.32711649	          0.86014882	         -0.00082002	        -17.21681885	         -1.34783088	          6.59805399	         30.27283978	          2.15913918	         -3.23297037	        -11.15631129	        -17.75384213	         -0.42300756	          1.58802773	         13.36304995	          3.17048523	         -8.70068293	         -0.21348890	         28.74942073	          0.74435712	         -0.84338537	         -0.12376574	         -1.78028799	          4.28631741	        -13.48677302	         15.41726485	         -9.09748004	        -13.50827207	          7.28136669	         33.01891390	         17.50125205	         86.51662706	         86.51662706	          0.23184631	          0.07489333	          0.05000165	          0.24252208	          0.15749433	          0.07653399	          0.05003888	          0.05000289	          0.05000546	          0.05627819	          0.06683077	          0.19384661	          0.16198500	          0.12273404	          0.05003007	          0.14790062	          0.21772644	          0.08109904	          0.05003320	          0.05000943	          0.05000532	          0.05000467	          0.23012706	          0.45474045	          0.05000203	          0.05874113	          0.05874149	          0.15237988	          0.11562270	          0.15443753	          0.14565783	          0.22872763	          0.29433286	          0.18828883	          0.17434550	          0.15570055	          0.21107683	          0.06304649	          0.09498094	          0.14619639	          0.05000118	          0.06561222	          0.05000321	          0.05000031	          0.06977766	          0.05305880	          0.05000044	          0.05000144	          0.08885682	          0.05000077	          0.05000134	          0.05000213	          0.05000039	          0.05000068	          0.06176601	          0.05000176	          0.05873839	          0.08575227	          0.12802637	          0.32658108	          0.24333914	          0.09908734	          0.05000127	          0.05001302	          0.05000494	          0.05873924	          0.05874496	          0.13585461	          0.05000150	          0.05874880	          0.50429452	          0.11190690	          0.08442570	          0.06901065	          0.23433537	          0.22819728	          0.19700065	          0.05000012	          0.05000021	          0.05000003	          0.05000020	          0.05874122	          0.05000560	          0.59048497	          0.22305017	          0.13629347	          0.50767845	          0.57417861	          0.06132155	          0.05000011	          0.09341066	          0.09582334	
          1.06991974	         -2.89905786	         -1.46696124	          5.60558806	          1.34328573	          0.85908497	         -0.00064917	        -16.92539702	         -1.59939474	          6.36777393	         29.47877598	          2.47399093	         -2.94530094	        -13.25327551	        -18.09971720	         -1.40775852	          1.35231575	         14.10523958	          2.59782966	         -9.11001086	         -0.39492583	         29.20261257	          0.91059298	         -0.62924419	          0.13302340	         -1.82800536	          3.99137191	        -13.51437120	         15.66638295	        -10.03318831	        -13.51700539	          7.14090997	         33.89236902	         17.36717597	         86.51662706	         86.51662706	          0.29936555	          0.06374871	          0.05000074	          0.20643420	          0.13405828	          0.06514533	          0.05001415	          0.05000279	          0.05000250	          0.05000051	          0.05688679	          0.17533515	          0.31675799	          0.10447384	          0.05876793	          0.12593211	          0.19281161	          0.06904092	          0.05001206	          0.05007124	          0.05033442	          0.05873848	          0.19588264	          0.43343781	          0.05000771	          0.05000413	          0.05000065	          0.12970460	          0.09842427	          0.13145696	          0.12398361	          0.19469108	          0.25053375	          0.16026990	          0.14840162	          0.13253165	          0.17966729	          0.15438261	          0.17157887	          0.17305533	          0.05000520	          0.17944819	          0.13369456	          0.06760011	          0.05939420	          0.05987903	          0.31961509	          0.05000115	          0.37028728	          0.06161944	          0.05000356	          0.40694307	          0.08530496	          0.09406645	          0.09059845	          0.05000054	          0.05000170	          0.07299583	          0.20208939	          0.27798385	          0.20713219	          0.14203203	          0.05000267	          0.06900466	          0.11188901	          0.05000087	          0.05000363	          0.12344573	          0.05676890	          0.05000775	          0.42925148	          0.09525482	          0.24375993	          0.05874137	          0.19948092	          0.21004291	          0.17586889	          0.05874122	          0.05874129	          0.05874123	          0.05000533	          0.05000147	          0.05000628	          0.52815743	          0.18985868	          0.11601197	          0.43213260	          0.55711619	          0.05219647	          0.05000011	          0.09316585	          0.08156406	
          1.08040915	         -2.88263381	         -1.56193846	          5.78174271	          1.35946721	          0.85790816	         -0.00047937	        -16.52386848	         -1.84259036	          6.13383731	         28.55956831	          2.76567356	         -2.65121125	        -15.55839711	        -18.45561975	         -2.36809532	          1.36382326	         14.77150188	          1.98147124	         -9.23018365	         -0.56740156	         28.83310992	          1.12541798	         -0.41883680	          0.40506265	         -1.86474656	          3.66466659	        -13.54834022	         15.87205057	        -10.91898775	        -13.53645386	          7.09220811	         34.74705648	         17.19783927	         86.51662706	         86.51662706	          0.25481782	          0.05426256	          0.05000018	          0.17672589	          0.11410986	          0.05545158	          0.05005726	          0.05000203	          0.05000180	          0.05000186	          0.05870473	          0.19298808	          0.26962255	          0.08892822	          0.05002495	          0.10719686	          0.22015538	          0.05877064	          0.05000195	          0.05000357	          0.05000212	          0.05000175	          0.16673409	          0.39676562	          0.05000023	          0.05000135	          0.05000095	          0.11040371	          0.08377852	          0.11189556	          0.10553432	          0.16571945	          0.21325234	          0.13642042	          0.12631867	          0.11281078	          0.15293224	          0.20353815	          0.14604990	          0.14730393	          0.18622203	          0.22138784	          0.11380553	          0.10488851	          0.05055588	          0.05096861	          0.38272348	          0.36116644	          0.47784820	          0.27378635	          0.33844083	          0.34639496	          0.07261146	          0.10247285	          0.07711821	          0.06901186	          0.05000641	          0.06213363	          0.17201698	          0.23661840	          0.17632398	          0.15683184	          0.05000149	          0.05873768	          0.09524158	          0.26430665	          0.19222310	          0.15576921	          0.05000041	          0.05000046	          0.36537558	          0.08108204	          0.20749678	          0.05000033	          0.27178892	          0.29099295	          0.24235019	          0.05000019	          0.05000041	          0.05000007	          0.05000229	          0.05011223	          0.05000341	          0.66396759	          0.16160631	          0.09874858	          0.47781939	          0.56653208	          0.34853221	          0.06752862	          0.07930215	          0.06942668	
